<svg xmlns="http://www.w3.org/2000/svg" xmlns:xlink="http://www.w3.org/1999/xlink" width="128" zoomAndPan="magnify" viewBox="0 0 96 95.999999" height="128" preserveAspectRatio="xMidYMid meet" version="1.2"><g id="cf2173002c"><path style=" stroke:none;fill-rule:nonzero;fill:#cbd5e1;fill-opacity:1;" d="M 46.617188 0.695312 L 46.617188 9.507812 L 38.726562 9.507812 L 38.726562 11.828125 L 46.617188 11.828125 L 46.617188 20.640625 L 49.398438 20.640625 L 49.398438 11.828125 L 57.28125 11.828125 L 57.28125 9.507812 L 49.398438 9.507812 L 49.398438 0.695312 Z M 70.734375 9.742188 L 70.726562 16.234375 L 70.726562 22.726562 L 58.898438 22.726562 L 58.898438 26.4375 L 70.726562 26.4375 L 70.726562 39.1875 L 74.898438 39.1875 L 74.945312 32.859375 L 75.023438 26.554688 L 80.882812 26.476562 L 86.722656 26.4375 L 86.722656 22.726562 L 74.910156 22.726562 L 74.910156 9.742188 Z M 21.109375 9.984375 L 21.109375 22.742188 L 9.164062 22.742188 L 9.164062 26.445312 L 21.109375 26.445312 L 21.109375 39.203125 L 25.046875 39.203125 L 25.046875 26.441406 L 37.101562 26.441406 L 37.101562 22.738281 L 25.046875 22.738281 L 25.046875 9.984375 Z M 45.453125 31.0625 L 45.453125 45.4375 L 32.238281 45.4375 L 32.238281 50.1875 L 45.457031 50.1875 L 45.457031 64.570312 L 50.574219 64.570312 L 50.574219 50.1875 L 63.8125 50.1875 L 63.8125 45.4375 L 50.570312 45.4375 L 50.570312 31.0625 Z M 84.335938 37.265625 L 84.335938 46.148438 L 76.289062 46.148438 L 76.289062 49.390625 L 84.335938 49.390625 L 84.335938 58.4375 L 87.882812 58.4375 L 87.882812 49.390625 L 96 49.390625 L 96 46.148438 L 87.882812 46.148438 L 87.882812 37.269531 L 86.195312 37.269531 Z M 7.890625 37.789062 L 7.890625 46.484375 L 0 46.484375 L 0 48.96875 L 7.890625 48.96875 L 7.890625 57.742188 L 10.558594 57.742188 L 10.558594 48.96875 L 18.558594 48.96875 L 18.558594 46.488281 L 10.4375 46.488281 L 10.4375 37.785156 L 9.164062 37.785156 Z M 70.726562 55.851562 L 70.726562 68.867188 L 58.664062 68.867188 L 58.664062 72.574219 L 70.726562 72.574219 L 70.726562 85.445312 L 75.015625 85.445312 L 75.015625 72.578125 L 86.960938 72.578125 L 86.960938 68.867188 L 75.015625 68.867188 L 75.015625 55.851562 Z M 20.875 55.882812 L 20.875 68.867188 L 9.046875 68.867188 L 9.046875 72.578125 L 20.875 72.578125 L 20.875 85.335938 L 25.28125 85.335938 L 25.28125 72.578125 L 37.101562 72.578125 L 37.101562 68.867188 L 25.28125 68.867188 L 25.28125 55.878906 L 23.078125 55.878906 Z M 46.140625 74.195312 L 46.148438 78.609375 L 46.148438 83.007812 L 38.265625 83.007812 L 38.265625 86.257812 L 46.148438 86.257812 L 46.148438 95.304688 L 49.859375 95.304688 L 49.90625 90.828125 L 49.976562 86.257812 L 57.851562 86.257812 L 57.851562 83.007812 L 49.851562 83.007812 L 49.851562 74.195312 Z M 46.140625 74.195312 "/></g></svg>